<svg version="1.1" viewBox="0.0 0.0 200.0 50.0" fill="none" stroke="none" stroke-linecap="square" stroke-miterlimit="10" xmlns:xlink="http://www.w3.org/1999/xlink" xmlns="http://www.w3.org/2000/svg"><clipPath id="p.0"><path d="m0 0l200.0 0l0 50.0l-200.0 0l0 -50.0z" clip-rule="nonzero"/></clipPath><g clip-path="url(#p.0)"><path fill="#000000" fill-opacity="0.0" d="m0 0l200.0 0l0 50.0l-200.0 0z" fill-rule="evenodd"/><g filter="url(#shadowFilter-p.1)"><use xlink:href="#p.1" transform="matrix(1.0 0.0 0.0 1.0 1.4142136482939642 1.414213648293962)"/></g><defs><filter id="shadowFilter-p.1" filterUnits="userSpaceOnUse"><feGaussianBlur in="SourceAlpha" stdDeviation="0.0" result="blur"/><feComponentTransfer in="blur" color-interpolation-filters="sRGB"><feFuncR type="linear" slope="0" intercept="1.0"/><feFuncG type="linear" slope="0" intercept="1.0"/><feFuncB type="linear" slope="0" intercept="0.49803922"/><feFuncA type="linear" slope="1.0" intercept="0"/></feComponentTransfer></filter></defs><g id="p.1"><path fill="#333333" d="m11.537949 13.082994c-0.6709852 0.09900284 -0.9802036 0.40393066 -0.92765427 0.91478443c0.024251938 0.43561172 0.33347034 0.6771784 0.92765427 0.724699l26.301743 0c0.64673233 -0.07128143 0.95796967 -0.3623495 0.93371964 -0.8732023c-0.028297424 -0.51085377 -0.33953476 -0.7662811 -0.93371964 -0.7662811zm1.1580534 10.5853615c-0.62248135 0.023759842 -0.92159176 0.31482697 -0.8973398 0.8732033c0 0.53461266 0.29911137 0.80191994 0.8973398 0.80191994l11.471391 0.077222824c0.048505783 1.3107948 0.04244232 2.4414043 -0.018188477 3.3918285c-0.0606308 0.9504261 -0.1657238 1.7404671 -0.3152809 2.370123c-0.17381096 0.60985565 -0.4102726 1.1761532 -0.709383 1.698885c-0.29911232 0.5227356 -0.6346016 1.0276489 -1.0064754 1.51474c-0.7437439 0.8751869 -1.9098778 1.7384872 -3.4984112 2.5899086c-0.94584465 0.22176743 -1.3318634 0.62371826 -1.1580524 1.2058525c0.105796814 0.37121582 0.38232422 0.55682755 0.8295784 0.55682755c0.28751755 0 0.64559746 -0.07670593 1.0742359 -0.2301178c1.4389744 -0.8276634 2.5929832 -1.6414642 3.4620323 -2.4414062c0.47292137 -0.41580963 0.88925743 -0.92666245 1.2489986 -1.5325584c0.35974312 -0.60985565 0.70129585 -1.3286171 1.0246639 -2.1562767c0.5941849 -1.6790848 0.84277153 -4.001686 0.7457619 -6.967806l11.137922 -0.077222824c0.5941849 -0.095041275 0.8912735 -0.40987015 0.8912735 -0.9444847c0 -0.48709297 -0.29708862 -0.7306385 -0.8912735 -0.7306385z" fill-rule="evenodd"/><path fill="#333333" d="m49.911312 13.593848c-0.6709862 0.14652348 -1.032753 0.42571163 -1.0852966 0.83756256c-0.048503876 0.41581059 0.29911423 0.67123795 1.0428543 0.7662802l19.153347 0.035640717c-0.25061035 0.97418594 -0.58812714 1.9483719 -1.0125427 2.9225578c-0.420372 0.97418594 -0.91552734 1.9345112 -1.4854584 2.8809757c-0.5456772 0.97418594 -1.1742172 1.9424324 -1.8856277 2.9047375c-0.7073593 0.9583454 -1.4814148 1.9008503 -2.3221664 2.8275146c-0.8447914 0.89894485 -1.7340469 1.7879868 -2.6677666 2.6671314c-0.92967606 0.8751831 -1.9038124 1.7127457 -2.9224129 2.5126858c-0.99435043 0.8039036 -2.0311394 1.566225 -3.1103745 2.2869587c-1.0792313 0.7167816 -2.1907997 1.3899994 -3.3347054 2.0196571c-0.67098236 0.29304504 -0.9074402 0.6831169 -0.7093849 1.170208c0.12636566 0.35625076 0.3391075 0.53437424 0.638237 0.53437424c0.16971588 0 0.3672409 -0.05734253 0.5925751 -0.17202377c3.2053604 -1.5088005 7.2171097 -4.5363007 12.035259 -9.0825l10.016247 9.379509c0.43115234 0.32208633 0.7679901 0.48313522 1.0105133 0.48313522c0.1212616 0 0.21894836 -0.04026413 0.29305267 -0.12078476c0.2263565 -0.29304886 0.18997955 -0.8039017 -0.10913086 -1.5325623l-10.022316 -9.343866c0.99435425 -1.2157536 1.857338 -2.3641834 2.588951 -3.4452915c0.73161316 -1.0850697 1.3338776 -2.1028156 1.8068008 -3.0532417c0.44866943 -0.9227028 0.84075165 -1.7721462 1.176239 -2.5483265c0.335495 -0.7801399 0.60227203 -1.4751396 0.8003311 -2.0849953c0.19805908 -0.6336174 0.32740784 -1.156352 0.38803864 -1.568202c0.06467438 -0.41185093 0.0464859 -0.7405405 -0.05456543 -0.98606586c-0.24656677 -0.19404507 -7.186798 -0.29106808 -20.820698 -0.29106808z" fill-rule="evenodd"/><path fill="#333333" d="m92.303024 11.5495615c-0.49687195 0 -0.7591095 0.46164322 -0.78671265 1.3849297l-0.036376953 25.512978c0.12529755 0.6811371 0.4244156 1.0217056 0.89733887 1.0217056c0.4971695 0 0.74575806 -0.34056854 0.74575806 -1.0217056l0.10913849 -13.359415c5.0930023 2.1186562 10.38205 3.5799332 15.867142 4.3838367c0.06309509 0.0046367645 0.12358856 0.006954193 0.18149567 0.006954193c0.5355911 0 0.84898376 -0.19834137 0.9401779 -0.59502983c0.072753906 -0.41185188 -0.2263565 -0.7643032 -0.89733887 -1.0573483c-5.489128 -0.70489883 -10.802429 -2.2374592 -15.939903 -4.597683l-0.036376953 -10.656641c-0.10105133 -0.63361645 -0.4365387 -0.97418594 -1.0064774 -1.0217075c-0.012763977 -5.8174133E-4 -0.025390625 -8.72612E-4 -0.037864685 -8.72612E-4z" fill-rule="evenodd"/><path fill="#333333" d="m148.15251 19.326063c-0.06719971 0 -0.13212585 0.011892319 -0.19477844 0.035678864c-0.34762573 0.14652252 -0.5840912 0.35244942 -0.7093811 0.61777496c-0.12530518 0.3168087 1.1418762 2.5918884 3.8015594 6.825241c0.28918457 0.20605278 0.5527191 0.30908203 0.7906189 0.30908203c0.12786865 0 0.24832153 -0.029766083 0.3613739 -0.08929634c0.29910278 -0.17028427 0.36175537 -0.5227337 0.18795776 -1.0573483l-3.2801514 -6.0233192c-0.35847473 -0.41187668 -0.677536 -0.6178131 -0.9571991 -0.6178131zm-4.955841 2.0765915c-0.11708069 0 -0.231781 0.036476135 -0.34407043 0.10942268c-0.44866943 0.2692871 -0.5982361 0.67123795 -0.44866943 1.2058525l3.280136 6.5698147c0.339386 0.17335701 0.63298035 0.26003838 0.8807678 0.26003838c0.09750366 0 0.18791199 -0.013418198 0.27122498 -0.040252686c0.29910278 -0.12276268 0.44866943 -0.4890709 0.44866943 -1.0989304l-3.2377014 -6.4213085c-0.2962494 -0.38975906 -0.57969666 -0.5846367 -0.85035706 -0.5846367zm7.810791 -7.7731657l-29.684944 0.18414497c-0.046699524 -0.004255295 -0.091804504 -0.006382942 -0.13532257 -0.006382942c-0.44243622 0 -0.7206955 0.21993351 -0.83477783 0.6598005c-0.14955902 0.43957138 0.11116028 0.7940006 0.78214264 1.0632877l22.27584 0.07128239c-3.278122 1.6315632 -5.549759 3.407671 -6.814926 5.3283215c-1.2692108 1.9206505 -2.0897522 4.1838493 -2.4616241 6.7895985c-0.072753906 2.1899376 0.47494507 4.2452316 1.6430969 6.165884c1.2166748 1.9483719 3.102295 3.5660744 5.6568756 4.8531075c0.18061829 0.0342865 0.34280396 0.05142975 0.4865265 0.05142975c0.3709259 0 0.61901855 -0.11416626 0.7442932 -0.34249496c0.1737976 -0.34057236 0.024246216 -0.7662811 -0.44866943 -1.277134c-2.2837677 -1.1444702 -3.9228363 -2.5067482 -4.9171753 -4.08683c-0.49313354 -0.8039017 -0.85894775 -1.6315651 -1.0974274 -2.4829845c-0.23443604 -0.85142326 -0.32740784 -1.752346 -0.27890015 -2.7027721c0.17381287 -1.168232 0.452713 -2.2552795 0.83670044 -3.2611465c0.38804626 -1.0098267 0.8670349 -1.9285717 1.436966 -2.7562332c1.1439056 -1.7028446 2.8456116 -3.1383839 5.105133 -4.306614c1.2894135 -0.7088585 2.6414795 -1.1721897 4.0562134 -1.3899956c0.024246216 0 0.15965271 -0.017820358 0.40621948 -0.053462982c0.25061035 -0.035640717 0.60025024 -0.10296059 1.0489197 -0.20196438c0.8932953 -0.19404602 1.8997803 -0.41185188 3.0194244 -0.6534176c0.19807434 -1.0217066 -0.076797485 -1.5701818 -0.82458496 -1.6454239z" fill-rule="evenodd"/><path fill="#333333" d="m173.4208 22.972507c1.292923 0 2.316208 0.4754963 3.0698547 1.426487c0.14956665 0.8751831 0.24253845 1.6969032 0.2789154 2.465166c0.036376953 0.7642994 0.030303955 1.4751358 -0.018188477 2.132515c-0.14956665 1.362278 -0.44866943 2.346363 -0.89733887 2.952259c-0.4146576 0.6130619 -1.089447 0.9195919 -2.0243835 0.9195919c-0.067596436 0 -0.13653564 -0.0016021729 -0.20684814 -0.0048065186c-1.0186005 0 -1.8270111 -0.09702301 -2.425232 -0.29106903c-0.6427002 -0.1940422 -1.2126312 -0.6078739 -1.7098083 -1.2414932c-0.54566956 -0.6811371 -0.9175415 -1.3998966 -1.1156006 -2.1562767c-0.076812744 -0.38809204 -0.10307312 -0.8058834 -0.078826904 -1.2533741c0.024261475 -0.45145035 0.123291016 -0.9444847 0.29708862 -1.4790974c0.34762573 -1.0731907 0.8690491 -1.9127312 1.5642853 -2.5186272c0.7720337 -0.60985756 1.8290405 -0.92666435 3.1710052 -0.9504261c0.03186035 -5.645752E-4 0.06355286 -8.4877014E-4 0.095077515 -8.4877014E-4zm3.5185242 -13.501128c-0.3718567 0 -0.6204529 0.2554264 -0.74575806 0.7662802l0.14552307 6.3143864l-17.358673 0c-0.7194824 0.14256477 -1.0287018 0.44551277 -0.9276581 0.908844c0.1212616 0.4395733 0.43048096 0.659359 0.9276581 0.659359l17.473862 0l-0.072753906 3.9026833c-0.56225586 -0.39698982 -1.3930359 -0.5954838 -2.4923096 -0.5954838c-0.31530762 0 -0.65267944 0.016328812 -1.0121613 0.048988342c-1.5642853 0.14652443 -2.7930756 0.59599686 -3.6863708 1.3484154c-0.47291565 0.3920517 -0.8589325 0.8078613 -1.1580505 1.2474346c-0.29507446 0.43560982 -0.5436554 0.8969631 -0.74575806 1.3840561c-0.39611816 1.0217075 -0.58206177 1.8731289 -0.55781555 2.554268c0 0.7048969 0.1131897 1.4216747 0.33953857 2.1503372c0.22232056 0.7563801 0.66897583 1.5365219 1.3399506 2.3404217c0.7437439 0.7999382 1.4389801 1.2969322 2.0857086 1.4909782c0.7194824 0.22176743 1.6127777 0.33264923 2.6798859 0.33264923c0.061569214 0.001373291 0.12271118 0.0020561218 0.18347168 0.0020561218c0.99212646 0 1.8748016 -0.18284988 2.647995 -0.54854965l0 0c-0.47291565 1.8731308 -1.4288635 3.6967583 -2.8678436 5.470886c-0.24656677 0.6811371 -0.21018982 1.0949669 0.10913086 1.2414894c0.08166504 0.025001526 0.16731262 0.03750229 0.256958 0.03750229c0.2653656 0 0.56573486 -0.10952377 0.9011078 -0.3285675c1.4147186 -1.8731308 2.3827972 -3.6254768 2.9042206 -5.257042c0.47291565 -1.6038399 0.7720337 -3.3799477 0.89733887 -5.3283195c0.04850769 -0.97418594 0.078826904 -1.8256092 0.09094238 -2.554268c0.012130737 -0.7286587 0.006072998 -1.3246536 -0.018188477 -1.7879868c-0.024246216 -0.48709297 -0.06265259 -1.3266354 -0.11520386 -2.5186272c-0.04849243 -1.1919918 -0.09700012 -2.736433 -0.14550781 -4.633322l10.543732 0c0.5941925 -0.21780777 0.8791504 -0.47323418 0.8549042 -0.7662811c-0.024246216 -0.29304695 -0.30921936 -0.56035423 -0.8549042 -0.80192184l-10.616486 0l-0.22433472 -6.3143864c-0.17381287 -0.51085377 -0.43452454 -0.7662802 -0.78215027 -0.7662802z" fill-rule="evenodd"/></g></g></svg>